<svg width="14" height="14" viewBox="0 0 14 14" fill="none" xmlns="http://www.w3.org/2000/svg">
<g clip-path="url(#clip0_673_108)">
<mask id="mask0_673_108" style="mask-type:luminance" maskUnits="userSpaceOnUse" x="0" y="0" width="14" height="14">
<path d="M14 0H0V14H14V0Z" fill="white"/>
</mask>
<g mask="url(#mask0_673_108)">
<path d="M1.5 13H3.75V10.75H1.5V13ZM4.25 13H6.75V10.75H4.25V13ZM1.5 10.25H3.75V7.75H1.5V10.25ZM4.25 10.25H6.75V7.75H4.25V10.25ZM1.5 7.25H3.75V5H1.5V7.25ZM7.25 13H9.75V10.75H7.25V13ZM4.25 7.25H6.75V5H4.25V7.25ZM10.25 13H12.5V10.75H10.25V13ZM7.25 10.25H9.75V7.75H7.25V10.25ZM4.5 3.5V1.25C4.5 1.18229 4.47526 1.1237 4.42578 1.07422C4.3763 1.02474 4.31771 1 4.25 1H3.75C3.68229 1 3.6237 1.02474 3.57422 1.07422C3.52474 1.1237 3.5 1.18229 3.5 1.25V3.5C3.5 3.56771 3.52474 3.6263 3.57422 3.67578C3.6237 3.72526 3.68229 3.75 3.75 3.75H4.25C4.31771 3.75 4.3763 3.72526 4.42578 3.67578C4.47526 3.6263 4.5 3.56771 4.5 3.5ZM10.25 10.25H12.5V7.75H10.25V10.25ZM7.25 7.25H9.75V5H7.25V7.25ZM10.25 7.25H12.5V5H10.25V7.25ZM10.5 3.5V1.25C10.5 1.18229 10.4753 1.1237 10.4258 1.07422C10.3763 1.02474 10.3177 1 10.25 1H9.75C9.68229 1 9.6237 1.02474 9.57422 1.07422C9.52474 1.1237 9.5 1.18229 9.5 1.25V3.5C9.5 3.56771 9.52474 3.6263 9.57422 3.67578C9.6237 3.72526 9.68229 3.75 9.75 3.75H10.25C10.3177 3.75 10.3763 3.72526 10.4258 3.67578C10.4753 3.6263 10.5 3.56771 10.5 3.5ZM13.5 3V13C13.5 13.2708 13.401 13.5052 13.2031 13.7031C13.0052 13.901 12.7708 14 12.5 14H1.5C1.22917 14 0.994792 13.901 0.796875 13.7031C0.598958 13.5052 0.5 13.2708 0.5 13V3C0.5 2.72917 0.598958 2.49479 0.796875 2.29688C0.994792 2.09896 1.22917 2 1.5 2H2.5V1.25C2.5 0.90625 2.6224 0.611979 2.86719 0.367187C3.11198 0.122396 3.40625 0 3.75 0H4.25C4.59375 0 4.88802 0.122396 5.13281 0.367187C5.3776 0.611979 5.5 0.90625 5.5 1.25V2H8.5V1.25C8.5 0.90625 8.6224 0.611979 8.86719 0.367187C9.11198 0.122396 9.40625 0 9.75 0H10.25C10.5937 0 10.888 0.122396 11.1328 0.367187C11.3776 0.611979 11.5 0.90625 11.5 1.25V2H12.5C12.7708 2 13.0052 2.09896 13.2031 2.29688C13.401 2.49479 13.5 2.72917 13.5 3Z" fill="#E5BA03"/>
</g>
</g>
<defs>
<clipPath id="clip0_673_108">
<rect width="14" height="14" fill="white"/>
</clipPath>
</defs>
</svg>
