<svg width="35" height="35" viewBox="0 0 35 35" fill="none" xmlns="http://www.w3.org/2000/svg">
<g clip-path="url(#clip0_421_17)">
<mask id="path-1-inside-1_421_17" fill="white">
<path d="M27.583 0H7.41699C6.73735 0.000764799 6.08576 0.27109 5.60519 0.75167C5.12461 1.23225 4.85428 1.88384 4.85352 2.56348V2.63184H3.79395C3.38602 2.63184 2.9948 2.79388 2.70635 3.08233C2.41791 3.37078 2.25586 3.762 2.25586 4.16992C2.25586 4.57785 2.41791 4.96907 2.70635 5.25751C2.9948 5.54596 3.38602 5.70801 3.79395 5.70801H4.85352V11.5186H3.79395C3.38602 11.5186 2.9948 11.6806 2.70635 11.9691C2.41791 12.2575 2.25586 12.6487 2.25586 13.0566C2.25586 13.4646 2.41791 13.8558 2.70635 14.1442C2.9948 14.4327 3.38602 14.5947 3.79395 14.5947H4.85352V20.4053H3.79395C3.38602 20.4053 2.9948 20.5673 2.70635 20.8558C2.41791 21.1442 2.25586 21.5354 2.25586 21.9434C2.25586 22.3513 2.41791 22.7425 2.70635 23.031C2.9948 23.3194 3.38602 23.4814 3.79395 23.4814H4.85352V29.292H3.79395C3.38602 29.292 2.9948 29.454 2.70635 29.7425C2.41791 30.0309 2.25586 30.4222 2.25586 30.8301C2.25586 31.238 2.41791 31.6292 2.70635 31.9177C2.9948 32.2061 3.38602 32.3682 3.79395 32.3682H4.85352V32.4365C4.85428 33.1162 5.12461 33.7678 5.60519 34.2483C6.08576 34.7289 6.73735 34.9992 7.41699 35H27.583C28.2626 34.9992 28.9142 34.7289 29.3948 34.2483C29.8754 33.7678 30.1457 33.1162 30.1465 32.4365V2.56348C30.1457 1.88384 29.8754 1.23225 29.3948 0.75167C28.9142 0.27109 28.2626 0.000764799 27.583 0ZM3.79395 4.68262C3.65797 4.68262 3.52756 4.6286 3.43141 4.53245C3.33527 4.4363 3.28125 4.3059 3.28125 4.16992C3.28125 4.03395 3.33527 3.90354 3.43141 3.80739C3.52756 3.71124 3.65797 3.65723 3.79395 3.65723H6.45996C6.59594 3.65723 6.72634 3.71124 6.82249 3.80739C6.91864 3.90354 6.97266 4.03395 6.97266 4.16992C6.97266 4.3059 6.91864 4.4363 6.82249 4.53245C6.72634 4.6286 6.59594 4.68262 6.45996 4.68262H3.79395ZM3.79395 13.5693C3.65797 13.5693 3.52756 13.5153 3.43141 13.4192C3.33527 13.323 3.28125 13.1926 3.28125 13.0566C3.28125 12.9207 3.33527 12.7903 3.43141 12.6941C3.52756 12.598 3.65797 12.5439 3.79395 12.5439H6.45996C6.59594 12.5439 6.72634 12.598 6.82249 12.6941C6.91864 12.7903 6.97266 12.9207 6.97266 13.0566C6.97266 13.1926 6.91864 13.323 6.82249 13.4192C6.72634 13.5153 6.59594 13.5693 6.45996 13.5693H3.79395ZM3.79395 22.4561C3.65797 22.4561 3.52756 22.402 3.43141 22.3059C3.33527 22.2097 3.28125 22.0793 3.28125 21.9434C3.28125 21.8074 3.33527 21.677 3.43141 21.5808C3.52756 21.4847 3.65797 21.4307 3.79395 21.4307H6.45996C6.59594 21.4307 6.72634 21.4847 6.82249 21.5808C6.91864 21.677 6.97266 21.8074 6.97266 21.9434C6.97266 22.0793 6.91864 22.2097 6.82249 22.3059C6.72634 22.402 6.59594 22.4561 6.45996 22.4561H3.79395ZM3.79395 31.3428C3.65797 31.3428 3.52756 31.2888 3.43141 31.1926C3.33527 31.0965 3.28125 30.9661 3.28125 30.8301C3.28125 30.6941 3.33527 30.5637 3.43141 30.4675C3.52756 30.3714 3.65797 30.3174 3.79395 30.3174H6.45996C6.59594 30.3174 6.72634 30.3714 6.82249 30.4675C6.91864 30.5637 6.97266 30.6941 6.97266 30.8301C6.97266 30.9661 6.91864 31.0965 6.82249 31.1926C6.72634 31.2888 6.59594 31.3428 6.45996 31.3428H3.79395ZM29.1211 32.4365C29.1206 32.8443 28.9584 33.2353 28.6701 33.5236C28.3817 33.812 27.9908 33.9741 27.583 33.9746H7.41699C7.00921 33.9741 6.61826 33.812 6.32991 33.5236C6.04156 33.2353 5.87937 32.8443 5.87891 32.4365V32.3682H6.45996C6.86789 32.3682 7.2591 32.2061 7.54755 31.9177C7.836 31.6292 7.99805 31.238 7.99805 30.8301C7.99805 30.4222 7.836 30.0309 7.54755 29.7425C7.2591 29.454 6.86789 29.292 6.45996 29.292H5.87891V23.4814H6.45996C6.86789 23.4814 7.2591 23.3194 7.54755 23.031C7.836 22.7425 7.99805 22.3513 7.99805 21.9434C7.99805 21.5354 7.836 21.1442 7.54755 20.8558C7.2591 20.5673 6.86789 20.4053 6.45996 20.4053H5.87891V14.5947H6.45996C6.86789 14.5947 7.2591 14.4327 7.54755 14.1442C7.836 13.8558 7.99805 13.4646 7.99805 13.0566C7.99805 12.6487 7.836 12.2575 7.54755 11.9691C7.2591 11.6806 6.86789 11.5186 6.45996 11.5186H5.87891V5.70801H6.45996C6.86789 5.70801 7.2591 5.54596 7.54755 5.25751C7.836 4.96907 7.99805 4.57785 7.99805 4.16992C7.99805 3.762 7.836 3.37078 7.54755 3.08233C7.2591 2.79388 6.86789 2.63184 6.45996 2.63184H5.87891V2.56348C5.87937 2.15569 6.04156 1.76474 6.32991 1.4764C6.61826 1.18805 7.00921 1.02585 7.41699 1.02539H27.583C27.9908 1.02585 28.3817 1.18805 28.6701 1.4764C28.9584 1.76474 29.1206 2.15569 29.1211 2.56348V32.4365Z"/>
</mask>
<path d="M27.583 0H7.41699C6.73735 0.000764799 6.08576 0.27109 5.60519 0.75167C5.12461 1.23225 4.85428 1.88384 4.85352 2.56348V2.63184H3.79395C3.38602 2.63184 2.9948 2.79388 2.70635 3.08233C2.41791 3.37078 2.25586 3.762 2.25586 4.16992C2.25586 4.57785 2.41791 4.96907 2.70635 5.25751C2.9948 5.54596 3.38602 5.70801 3.79395 5.70801H4.85352V11.5186H3.79395C3.38602 11.5186 2.9948 11.6806 2.70635 11.9691C2.41791 12.2575 2.25586 12.6487 2.25586 13.0566C2.25586 13.4646 2.41791 13.8558 2.70635 14.1442C2.9948 14.4327 3.38602 14.5947 3.79395 14.5947H4.85352V20.4053H3.79395C3.38602 20.4053 2.9948 20.5673 2.70635 20.8558C2.41791 21.1442 2.25586 21.5354 2.25586 21.9434C2.25586 22.3513 2.41791 22.7425 2.70635 23.031C2.9948 23.3194 3.38602 23.4814 3.79395 23.4814H4.85352V29.292H3.79395C3.38602 29.292 2.9948 29.454 2.70635 29.7425C2.41791 30.0309 2.25586 30.4222 2.25586 30.8301C2.25586 31.238 2.41791 31.6292 2.70635 31.9177C2.9948 32.2061 3.38602 32.3682 3.79395 32.3682H4.85352V32.4365C4.85428 33.1162 5.12461 33.7678 5.60519 34.2483C6.08576 34.7289 6.73735 34.9992 7.41699 35H27.583C28.2626 34.9992 28.9142 34.7289 29.3948 34.2483C29.8754 33.7678 30.1457 33.1162 30.1465 32.4365V2.56348C30.1457 1.88384 29.8754 1.23225 29.3948 0.75167C28.9142 0.27109 28.2626 0.000764799 27.583 0ZM3.79395 4.68262C3.65797 4.68262 3.52756 4.6286 3.43141 4.53245C3.33527 4.4363 3.28125 4.3059 3.28125 4.16992C3.28125 4.03395 3.33527 3.90354 3.43141 3.80739C3.52756 3.71124 3.65797 3.65723 3.79395 3.65723H6.45996C6.59594 3.65723 6.72634 3.71124 6.82249 3.80739C6.91864 3.90354 6.97266 4.03395 6.97266 4.16992C6.97266 4.3059 6.91864 4.4363 6.82249 4.53245C6.72634 4.6286 6.59594 4.68262 6.45996 4.68262H3.79395ZM3.79395 13.5693C3.65797 13.5693 3.52756 13.5153 3.43141 13.4192C3.33527 13.323 3.28125 13.1926 3.28125 13.0566C3.28125 12.9207 3.33527 12.7903 3.43141 12.6941C3.52756 12.598 3.65797 12.5439 3.79395 12.5439H6.45996C6.59594 12.5439 6.72634 12.598 6.82249 12.6941C6.91864 12.7903 6.97266 12.9207 6.97266 13.0566C6.97266 13.1926 6.91864 13.323 6.82249 13.4192C6.72634 13.5153 6.59594 13.5693 6.45996 13.5693H3.79395ZM3.79395 22.4561C3.65797 22.4561 3.52756 22.402 3.43141 22.3059C3.33527 22.2097 3.28125 22.0793 3.28125 21.9434C3.28125 21.8074 3.33527 21.677 3.43141 21.5808C3.52756 21.4847 3.65797 21.4307 3.79395 21.4307H6.45996C6.59594 21.4307 6.72634 21.4847 6.82249 21.5808C6.91864 21.677 6.97266 21.8074 6.97266 21.9434C6.97266 22.0793 6.91864 22.2097 6.82249 22.3059C6.72634 22.402 6.59594 22.4561 6.45996 22.4561H3.79395ZM3.79395 31.3428C3.65797 31.3428 3.52756 31.2888 3.43141 31.1926C3.33527 31.0965 3.28125 30.9661 3.28125 30.8301C3.28125 30.6941 3.33527 30.5637 3.43141 30.4675C3.52756 30.3714 3.65797 30.3174 3.79395 30.3174H6.45996C6.59594 30.3174 6.72634 30.3714 6.82249 30.4675C6.91864 30.5637 6.97266 30.6941 6.97266 30.8301C6.97266 30.9661 6.91864 31.0965 6.82249 31.1926C6.72634 31.2888 6.59594 31.3428 6.45996 31.3428H3.79395ZM29.1211 32.4365C29.1206 32.8443 28.9584 33.2353 28.6701 33.5236C28.3817 33.812 27.9908 33.9741 27.583 33.9746H7.41699C7.00921 33.9741 6.61826 33.812 6.32991 33.5236C6.04156 33.2353 5.87937 32.8443 5.87891 32.4365V32.3682H6.45996C6.86789 32.3682 7.2591 32.2061 7.54755 31.9177C7.836 31.6292 7.99805 31.238 7.99805 30.8301C7.99805 30.4222 7.836 30.0309 7.54755 29.7425C7.2591 29.454 6.86789 29.292 6.45996 29.292H5.87891V23.4814H6.45996C6.86789 23.4814 7.2591 23.3194 7.54755 23.031C7.836 22.7425 7.99805 22.3513 7.99805 21.9434C7.99805 21.5354 7.836 21.1442 7.54755 20.8558C7.2591 20.5673 6.86789 20.4053 6.45996 20.4053H5.87891V14.5947H6.45996C6.86789 14.5947 7.2591 14.4327 7.54755 14.1442C7.836 13.8558 7.99805 13.4646 7.99805 13.0566C7.99805 12.6487 7.836 12.2575 7.54755 11.9691C7.2591 11.6806 6.86789 11.5186 6.45996 11.5186H5.87891V5.70801H6.45996C6.86789 5.70801 7.2591 5.54596 7.54755 5.25751C7.836 4.96907 7.99805 4.57785 7.99805 4.16992C7.99805 3.762 7.836 3.37078 7.54755 3.08233C7.2591 2.79388 6.86789 2.63184 6.45996 2.63184H5.87891V2.56348C5.87937 2.15569 6.04156 1.76474 6.32991 1.4764C6.61826 1.18805 7.00921 1.02585 7.41699 1.02539H27.583C27.9908 1.02585 28.3817 1.18805 28.6701 1.4764C28.9584 1.76474 29.1206 2.15569 29.1211 2.56348V32.4365Z" stroke="#E5BA03" stroke-width="1.71875" mask="url(#path-1-inside-1_421_17)"/>
<path d="M21.2861 24.2999C20.7272 24.3001 20.1779 24.1543 19.6926 23.8769L19.6242 23.8383C16.4694 22.0337 13.8301 19.4502 11.9583 16.3348L11.6015 15.7401C11.236 15.1321 11.0846 14.4193 11.1713 13.7152C11.258 13.0112 11.5779 12.3564 12.0799 11.8553L12.7909 11.1443C13.3883 10.5469 14.3599 10.5469 14.9568 11.1443L16.5231 12.7107C16.7588 12.9475 16.9109 13.2547 16.9564 13.5857C17.0019 13.9168 16.9382 14.2536 16.7751 14.5453L16.1864 15.5907C16.174 15.6127 16.1691 15.6382 16.1726 15.6632C16.176 15.6882 16.1875 15.7114 16.2054 15.7292L19.6926 19.2165C19.7108 19.2343 19.7342 19.2457 19.7593 19.249C19.7845 19.2523 19.8101 19.2474 19.8322 19.235L20.876 18.6468L20.8766 18.6462C21.1683 18.4833 21.5051 18.4197 21.8361 18.4652C22.1671 18.5107 22.4743 18.6627 22.7112 18.8982L24.278 20.4656C24.8755 21.063 24.8755 22.0347 24.278 22.6315L23.5356 23.3734C23.24 23.6681 22.8891 23.9016 22.5031 24.0606C22.1171 24.2196 21.7035 24.3009 21.2861 24.2999ZM13.8738 11.7825C13.7598 11.7825 13.6457 11.8259 13.5588 11.9128L12.8479 12.6232C12.5175 12.9531 12.3069 13.384 12.2498 13.8474C12.1927 14.3108 12.2924 14.78 12.5329 15.1802L12.8897 15.7748C14.6652 18.7303 17.1688 21.1811 20.1613 22.8933L20.2298 22.9319C21.0585 23.406 22.1013 23.2718 22.7671 22.6049L23.5096 21.863C23.5509 21.8217 23.5838 21.7726 23.6062 21.7185C23.6286 21.6645 23.6401 21.6065 23.6401 21.548C23.6401 21.4895 23.6286 21.4316 23.6062 21.3776C23.5838 21.3235 23.5509 21.2744 23.5096 21.233L21.9427 19.6656C21.8737 19.5971 21.7843 19.5529 21.688 19.5398C21.5916 19.5266 21.4936 19.5453 21.4088 19.5929L20.365 20.181C20.1361 20.3092 19.8717 20.3593 19.6118 20.3237C19.3519 20.2881 19.1107 20.1688 18.9247 19.9839L15.4374 16.4966C15.2523 16.3108 15.1329 16.0697 15.0973 15.8098C15.0617 15.55 15.1119 15.2856 15.2403 15.0569L15.829 14.0119C15.8763 13.9271 15.8947 13.8292 15.8815 13.733C15.8683 13.6368 15.8241 13.5475 15.7557 13.4786L14.1888 11.9128C14.1475 11.8714 14.0984 11.8386 14.0443 11.8163C13.9903 11.7939 13.9323 11.7824 13.8738 11.7825Z" fill="#E5BA03"/>
</g>
<defs>
<clipPath id="clip0_421_17">
<rect width="35" height="35" fill="white"/>
</clipPath>
</defs>
</svg>
