<svg width="35" height="35" viewBox="0 0 35 35" fill="none" xmlns="http://www.w3.org/2000/svg">
<circle cx="17.5" cy="17.5" r="15.5661" stroke="#E5BA03" stroke-width="0.86"/>
<path d="M17.5007 3.5C9.77926 3.5 3.5 9.78104 3.5 17.5C3.5 25.219 9.77926 31.5 17.5007 31.5C25.2193 31.5 31.5 25.219 31.5 17.5C31.5 9.78104 25.2193 3.5 17.5007 3.5ZM29.4409 17.5C29.4409 20.2315 28.5135 22.75 26.9677 24.7625C26.5303 24.4212 26.0651 23.4981 26.5026 22.5415C26.9444 21.579 27.0596 19.3506 26.9575 18.4829C26.8613 17.6167 26.4107 15.5298 25.1872 15.5094C23.9652 15.4919 23.1267 15.0879 22.4005 13.6383C20.8941 10.6225 25.228 10.0435 23.7217 8.37521C23.3002 7.90562 21.1216 10.3031 20.8022 7.10792C20.7818 6.87896 20.9991 6.53625 21.2922 6.18042C26.0228 7.77 29.4409 12.2427 29.4409 17.5ZM15.8602 5.67729C15.5744 6.23437 14.8205 6.46042 14.3626 6.87896C13.3651 7.78167 12.9364 7.65625 12.3997 8.5225C11.8587 9.38875 10.1147 10.6356 10.1147 11.2627C10.1147 11.8898 10.9954 12.6277 11.4358 12.4848C11.8762 12.339 13.0385 12.3477 13.7209 12.5869C14.4048 12.829 19.4285 13.071 17.8274 17.3177C17.3199 18.6681 15.0961 18.4406 14.504 20.6763C14.4151 21.0044 14.1074 22.4058 14.0884 22.8638C14.0519 23.5725 14.59 26.2442 13.9061 26.2442C13.2193 26.2442 11.3717 23.854 11.3717 23.4208C11.3717 22.9877 10.8934 21.4696 10.8934 20.1687C10.8934 18.8694 8.67973 18.8898 8.67973 17.1617C8.67973 15.6042 9.87988 14.8283 9.6101 14.0802C9.34615 13.3365 7.23751 13.3117 6.35818 13.2198C7.12704 11.2304 8.41315 9.48237 10.0836 8.15639C11.7541 6.83041 13.7483 5.97457 15.8602 5.67729ZM13.7443 28.8312C14.4617 28.4521 14.5346 27.9621 15.185 27.9373C15.9287 27.9037 16.5339 27.6471 17.3724 27.4619C18.1161 27.3 19.4475 26.5446 20.6185 26.4483C21.6072 26.3681 23.5569 26.4994 24.0818 27.4531C22.5765 28.4528 20.8633 29.0965 19.0721 29.3353C17.2809 29.574 15.4589 29.4017 13.7443 28.8312Z" fill="#E7C222"/>
</svg>
