<svg width="16" height="16" viewBox="0 0 16 16" fill="none" xmlns="http://www.w3.org/2000/svg">
<g clip-path="url(#clip0_368_13)">
<path d="M4.62732 0.722328L4.48425 0.764555C4.81618 1.65617 4.96654 2.58425 4.92043 3.45685C4.92049 3.45961 4.92022 3.46253 4.92028 3.4653C4.97338 3.4774 5.02652 3.49395 5.07969 3.51496C5.13286 3.53597 5.18564 3.56051 5.23757 3.58937C5.23777 3.58368 5.23832 3.57784 5.23852 3.57215C5.23913 3.56907 5.23919 3.56569 5.23891 3.56247C5.28684 2.62823 5.12483 1.63159 4.77039 0.6801L4.62732 0.722328Z" fill="#E5BA03"/>
<path d="M15.2346 7.63032L12.9826 14.8169C12.7967 15.4092 12.2033 15.5829 11.6583 15.2069L3.44935 9.54016L2.66107 7.4199L2.51999 7.04077L1.69377 4.81914L0.610355 1.90587L2.80989 1.25812L4.48723 0.764818C4.81916 1.65643 4.96952 2.58451 4.92341 3.45711C4.92347 3.45987 4.9232 3.4628 4.92326 3.46556C4.71578 3.41544 4.50768 3.42878 4.32031 3.51629C3.75351 3.78103 3.58709 4.62359 3.94894 5.3983C4.01754 5.54516 4.10023 5.67929 4.19274 5.79766C4.23361 5.85013 4.27686 5.89981 4.32139 5.9461C4.36668 5.99315 4.41358 6.03666 4.46198 6.07723C4.82619 6.38233 5.26676 6.49187 5.63075 6.32185C6.19755 6.05711 6.36342 5.21425 6.00157 4.43955C5.82107 4.05311 5.54356 3.75671 5.24055 3.58964C5.24075 3.58395 5.2413 3.5781 5.2415 3.57242C5.24211 3.56934 5.24217 3.56596 5.24189 3.56273C5.28982 2.62849 5.12781 1.63185 4.77337 0.680363L6.37371 0.209613L7.94323 1.29296L14.5826 5.87632C15.1277 6.25239 15.4206 7.03805 15.2346 7.63032Z" fill="#E5BA03"/>
<path opacity="0.2" d="M15.2878 7.15655C15.2981 7.32513 15.28 7.48628 15.2346 7.63032L12.9826 14.8169C12.7967 15.4092 12.2033 15.5829 11.6583 15.2069L3.44935 9.54016L2.66107 7.4199L2.51999 7.04077L1.69377 4.81914L0.610355 1.90587L1.03142 1.78187L1.85562 3.9983L2.68183 6.21992L2.82292 6.59905L3.6112 8.71931L11.8201 14.386C12.3651 14.7621 12.9585 14.5884 13.1445 13.9961L15.2878 7.15655Z" fill="#303C44"/>
</g>
<defs>
<clipPath id="clip0_368_13">
<rect width="16" height="16" fill="white"/>
</clipPath>
</defs>
</svg>
