<svg width="36" height="35" viewBox="0 0 36 35" fill="none" xmlns="http://www.w3.org/2000/svg">
<path d="M21.8145 22.2463L21.8145 22.2463C20.2075 24.1979 19.3453 25.0508 18.595 25.7931C18.4843 25.9026 18.3761 26.0097 18.2682 26.1175L17.998 26.3877L17.732 26.1133C17.5731 25.9494 17.4036 25.7806 17.2195 25.5973C16.5068 24.8875 15.5747 23.9594 14.1839 22.2441M21.8145 22.2463L12.6842 6.85149C11.1054 8.10049 9.96619 10.018 9.96619 13.1279C9.96619 14.6072 10.4911 16.2279 11.2694 17.7939C12.0501 19.3649 13.1001 20.9092 14.1839 22.2441M21.8145 22.2463C22.9079 20.9183 23.9584 19.3731 24.7373 17.7995C25.5137 16.2309 26.034 14.6065 26.034 13.1279C26.034 10.0183 24.895 8.10072 23.3121 6.85164M21.8145 22.2463L23.3121 6.85164M14.1839 22.2441L14.4749 22.0081L14.184 22.2443C14.184 22.2442 14.1839 22.2441 14.1839 22.2441ZM23.3121 6.85164C21.7512 5.60935 19.6911 5.09195 17.9939 5.09195C16.2997 5.09195 14.2526 5.60992 12.6843 6.8514L23.3121 6.85164ZM17.9944 9.4902C20.0281 9.49046 21.6601 11.1169 21.6606 13.1518L17.9944 9.4902ZM17.9944 9.4902C17.5136 9.48904 17.0373 9.5831 16.593 9.76695C16.1486 9.95087 15.745 10.221 15.4055 10.5617C15.0661 10.9025 14.7975 11.3071 14.6152 11.7522C14.4333 12.1967 14.341 12.6727 14.3438 13.153C14.3416 13.6325 14.4344 14.1078 14.6168 14.5513C14.7995 14.9955 15.0684 15.3991 15.408 15.7387C15.7476 16.0783 16.1512 16.3472 16.5954 16.5299C17.0388 16.7122 17.514 16.805 17.9934 16.8029C18.474 16.8062 18.9504 16.7144 19.3954 16.5328C19.841 16.3508 20.2462 16.0823 20.5874 15.7428C20.9287 15.4033 21.1992 14.9994 21.3834 14.5547C21.5675 14.1103 21.6617 13.6338 21.6606 13.1527L17.9944 9.4902ZM13.067 23.1446L13.0668 23.1444C10.8175 20.3338 8.53196 16.753 8.53196 13.1279C8.53196 9.67836 9.92211 7.21382 11.7955 5.73008C13.6837 4.23455 16.0021 3.65359 17.9939 3.65359C19.9862 3.65359 22.3168 4.23479 24.2047 5.73008C26.0782 7.21388 27.4683 9.67431 27.4683 13.1279C27.4683 16.753 25.1827 20.3338 22.9334 23.1444L22.9332 23.1446C21.8178 24.5405 20.7013 25.7278 19.8633 26.5662C19.4446 26.9852 19.096 27.3165 18.8526 27.5427C18.7309 27.6557 18.6355 27.7424 18.5709 27.8006C18.5596 27.8108 18.5492 27.8201 18.5398 27.8285C18.5223 27.8442 18.5082 27.8567 18.4976 27.8662L18.4792 27.8824L18.4748 27.8863L18.4738 27.8872L18.4736 27.8873L18.4736 27.8873L18.4736 27.8874L18.4729 27.888C18.2016 28.1267 17.7986 28.1267 17.5273 27.888L17.5266 27.8874L17.5266 27.8873L17.5266 27.8873L17.5264 27.8872L17.5254 27.8863L17.521 27.8824L17.5027 27.8662C17.4863 27.8517 17.4616 27.8297 17.4293 27.8006C17.3647 27.7424 17.2693 27.6557 17.1476 27.5427C16.9042 27.3165 16.5556 26.9852 16.1369 26.5662C15.2989 25.7278 14.1825 24.5405 13.067 23.1446ZM12.4726 25.8L12.4931 25.7978L12.5133 25.7935C12.5188 25.7923 12.5244 25.7912 12.5299 25.7902C12.9843 25.807 13.2281 26.1218 13.2563 26.4637C13.2709 26.6407 13.225 26.8133 13.1246 26.9472C13.029 27.0748 12.8681 27.1888 12.6077 27.2304C11.0896 27.3653 9.58829 27.6478 8.12496 28.0738L6.95682 28.4138L8.11298 28.7926C9.06935 29.1059 10.0535 29.3269 11.052 29.4527C12.9659 29.7365 15.4012 29.9108 17.9939 29.9108C20.5924 29.9108 23.0292 29.7363 24.9436 29.4521C26.2513 29.2599 27.2128 29.0279 27.8821 28.7845L28.8713 28.4248L27.8783 28.0759C26.9215 27.7397 25.3011 27.4267 23.3988 27.2312C23.1196 27.1809 22.9551 27.0566 22.8618 26.9235C22.7636 26.7834 22.7246 26.6052 22.7486 26.4251C22.7962 26.068 23.0738 25.7632 23.5399 25.8004C25.9023 26.0434 27.6425 26.3944 28.7976 26.8948C29.4067 27.1624 29.8259 27.3673 30.0921 27.9421C30.2186 28.2437 30.2259 28.5821 30.1124 28.8887C29.9966 29.1508 29.8111 29.3762 29.5761 29.5402L29.576 29.54L29.5655 29.5479C28.608 30.267 27.2092 30.5697 25.1562 30.8737L25.1561 30.8738C23.1439 31.1723 20.6577 31.3451 17.9939 31.3451C15.3342 31.3451 12.8439 31.1723 10.8317 30.8738C8.78328 30.5698 7.38914 30.2672 6.43593 29.5488C6.20458 29.3724 6.00664 29.1709 5.88892 28.8835C5.77268 28.5796 5.77803 28.2426 5.90381 27.9426C6.17003 27.3714 6.59416 27.1621 7.19807 26.8992C8.35747 26.3944 10.1071 26.0431 12.4726 25.8ZM12.9054 13.1527C12.9054 10.3505 15.197 8.05227 17.9931 8.05185C19.3446 8.05709 20.6391 8.59626 21.5948 9.55188C22.5504 10.5075 23.0896 11.8022 23.0948 13.1536C23.0943 15.9497 20.7961 18.2412 17.9939 18.2412C15.1965 18.2412 12.9054 15.9501 12.9054 13.1527Z" stroke="#E5BA03" stroke-width="0.7525"/>
</svg>
