<svg width="30" height="30" viewBox="0 0 30 30" fill="none" xmlns="http://www.w3.org/2000/svg">
<path d="M28 28H3L5.82608 9H25.1739L28 28Z" stroke="white" stroke-width="1.41604" stroke-miterlimit="10"/>
<path d="M12 11.8445V6.28622C12 3.37103 13.5699 1 15.5 1C17.4301 1 19 3.37103 19 6.28622V12" stroke="white" stroke-width="1.41604" stroke-miterlimit="10"/>
<path d="M11.5 13C11.7761 13 12 12.7761 12 12.5C12 12.2239 11.7761 12 11.5 12C11.2239 12 11 12.2239 11 12.5C11 12.7761 11.2239 13 11.5 13Z" fill="white" stroke="white" stroke-width="1.41604" stroke-miterlimit="10"/>
<path d="M19.5 13C19.7761 13 20 12.7761 20 12.5C20 12.2239 19.7761 12 19.5 12C19.2239 12 19 12.2239 19 12.5C19 12.7761 19.2239 13 19.5 13Z" fill="white" stroke="white" stroke-width="1.41604" stroke-miterlimit="10"/>
</svg>
