<svg width="11" height="12" viewBox="0 0 11 12" fill="none" xmlns="http://www.w3.org/2000/svg">
<path d="M0.264428 6.05734L4.51482 10.8622C4.65256 10.9857 4.83239 11.0517 5.01732 11.0467C5.20225 11.0416 5.37822 10.9659 5.50903 10.8351C5.63984 10.7043 5.71555 10.5283 5.72059 10.3434C5.72563 10.1585 5.65961 9.97863 5.53612 9.84089L1.72958 5.53735L5.53612 1.23381C5.65961 1.09607 5.72563 0.916239 5.72059 0.731311C5.71555 0.546382 5.63984 0.370414 5.50903 0.239601C5.37822 0.108788 5.20225 0.0330763 5.01732 0.0280374C4.83239 0.0229985 4.65256 0.089016 4.51482 0.212511L0.264428 5.01593C0.120785 5.15957 0.0532735 5.34774 0.0547099 5.53591C0.0532735 5.72408 0.120785 5.91369 0.264428 6.05734ZM10.6886 0.211075C10.553 0.0759047 10.3694 0 10.1779 0C9.98649 0 9.80286 0.0759047 9.66728 0.211075L5.41546 5.01593C5.27181 5.15957 5.20287 5.34774 5.20574 5.53591C5.2043 5.72408 5.27181 5.91369 5.41546 6.05734L9.66585 10.8622C9.80359 10.9857 9.98342 11.0517 10.1683 11.0467C10.3533 11.0416 10.5292 10.9659 10.6601 10.8351C10.7909 10.7043 10.8666 10.5283 10.8716 10.3434C10.8767 10.1585 10.8106 9.97863 10.6871 9.84089L6.88061 5.53735L10.6871 1.23381C10.8229 1.09837 10.8994 0.914536 10.8997 0.722741C10.8999 0.530945 10.824 0.346896 10.6886 0.211075Z" fill="black"/>
</svg>
