<svg width="20" height="20" viewBox="0 0 20 20" fill="none" xmlns="http://www.w3.org/2000/svg">
<path d="M14.806 4.114C14.5924 4.114 14.3836 4.17734 14.206 4.29601C14.0284 4.41468 13.89 4.58336 13.8082 4.7807C13.7265 4.97805 13.7051 5.1952 13.7468 5.4047C13.7884 5.6142 13.8913 5.80663 14.0423 5.95768C14.1934 6.10872 14.3858 6.21158 14.5953 6.25325C14.8048 6.29492 15.022 6.27353 15.2193 6.19179C15.4166 6.11005 15.5853 5.97162 15.704 5.79402C15.8227 5.61641 15.886 5.4076 15.886 5.194C15.886 4.90757 15.7722 4.63286 15.5697 4.43032C15.3671 4.22779 15.0924 4.114 14.806 4.114ZM18.946 6.292C18.9285 5.54527 18.7886 4.80646 18.532 4.105C18.3032 3.50482 17.947 2.96135 17.488 2.512C17.0423 2.05068 16.4976 1.69676 15.895 1.477C15.1954 1.21254 14.4558 1.06949 13.708 1.054C12.754 1 12.448 1 10 1C7.552 1 7.246 1 6.292 1.054C5.54424 1.06949 4.80461 1.21254 4.105 1.477C3.50351 1.69898 2.95924 2.0526 2.512 2.512C2.05068 2.95766 1.69676 3.5024 1.477 4.105C1.21254 4.80461 1.06949 5.54424 1.054 6.292C1 7.246 1 7.552 1 10C1 12.448 1 12.754 1.054 13.708C1.06949 14.4558 1.21254 15.1954 1.477 15.895C1.69676 16.4976 2.05068 17.0423 2.512 17.488C2.95924 17.9474 3.50351 18.301 4.105 18.523C4.80461 18.7875 5.54424 18.9305 6.292 18.946C7.246 19 7.552 19 10 19C12.448 19 12.754 19 13.708 18.946C14.4558 18.9305 15.1954 18.7875 15.895 18.523C16.4976 18.3032 17.0423 17.9493 17.488 17.488C17.949 17.0403 18.3055 16.4964 18.532 15.895C18.7886 15.1935 18.9285 14.4547 18.946 13.708C18.946 12.754 19 12.448 19 10C19 7.552 19 7.246 18.946 6.292ZM17.326 13.6C17.3194 14.1713 17.216 14.7373 17.02 15.274C16.8763 15.6657 16.6455 16.0196 16.345 16.309C16.0531 16.6065 15.6999 16.8368 15.31 16.984C14.7733 17.18 14.2073 17.2834 13.636 17.29C12.736 17.335 12.403 17.344 10.036 17.344C7.669 17.344 7.336 17.344 6.436 17.29C5.8428 17.3011 5.25214 17.2098 4.69 17.02C4.3172 16.8653 3.98022 16.6355 3.7 16.345C3.40128 16.0559 3.17336 15.7017 3.034 15.31C2.81427 14.7656 2.6924 14.1867 2.674 13.6C2.674 12.7 2.62 12.367 2.62 10C2.62 7.633 2.62 7.3 2.674 6.4C2.67803 5.81595 2.78466 5.23715 2.989 4.69C3.14744 4.31012 3.39064 3.97149 3.7 3.7C3.97343 3.39055 4.31136 3.14479 4.69 2.98C5.2386 2.78204 5.8168 2.67857 6.4 2.674C7.3 2.674 7.633 2.62 10 2.62C12.367 2.62 12.7 2.62 13.6 2.674C14.1713 2.68055 14.7373 2.78402 15.274 2.98C15.683 3.13179 16.0501 3.37856 16.345 3.7C16.6399 3.97646 16.8704 4.31446 17.02 4.69C17.22 5.23804 17.3236 5.8166 17.326 6.4C17.371 7.3 17.38 7.633 17.38 10C17.38 12.367 17.371 12.7 17.326 13.6ZM10 5.383C9.08723 5.38478 8.19547 5.65707 7.43739 6.16548C6.67931 6.67388 6.08894 7.39558 5.74087 8.23938C5.3928 9.08318 5.30265 10.0112 5.48181 10.9062C5.66098 11.8013 6.10141 12.6231 6.74747 13.2679C7.39352 13.9127 8.21621 14.3515 9.11157 14.5289C10.0069 14.7064 10.9348 14.6144 11.7779 14.2647C12.621 13.915 13.3416 13.3232 13.8485 12.5641C14.3554 11.8051 14.626 10.9128 14.626 10C14.6272 9.39259 14.5083 8.79095 14.2761 8.22966C14.0439 7.66837 13.7031 7.15853 13.2732 6.72945C12.8433 6.30036 12.3328 5.96051 11.771 5.72944C11.2093 5.49836 10.6074 5.38063 10 5.383ZM10 12.997C9.40725 12.997 8.82781 12.8212 8.33496 12.4919C7.8421 12.1626 7.45797 11.6945 7.23113 11.1469C7.0043 10.5993 6.94495 9.99668 7.06059 9.41531C7.17623 8.83395 7.46166 8.29994 7.8808 7.8808C8.29994 7.46166 8.83395 7.17623 9.41531 7.06059C9.99668 6.94495 10.5993 7.0043 11.1469 7.23113C11.6945 7.45797 12.1626 7.8421 12.4919 8.33496C12.8212 8.82781 12.997 9.40725 12.997 10C12.997 10.3936 12.9195 10.7833 12.7689 11.1469C12.6183 11.5105 12.3975 11.8409 12.1192 12.1192C11.8409 12.3975 11.5105 12.6183 11.1469 12.7689C10.7833 12.9195 10.3936 12.997 10 12.997Z" fill="black"/>
</svg>
