<svg width="20" height="20" viewBox="0 0 20 20" fill="none" xmlns="http://www.w3.org/2000/svg">
<g clip-path="url(#clip0_625_47)">
<path d="M8.25952 5.04008C8.02077 2.29383 5.15577 0.946331 5.03452 0.891331C4.92117 0.838048 4.79415 0.821024 4.67077 0.842581C1.36327 1.39133 0.865772 3.31633 0.845772 3.39633C0.818561 3.50781 0.822889 3.62467 0.858272 3.73383C4.80327 15.9738 13.002 18.2426 15.697 18.9888C15.9045 19.0463 16.0758 19.0926 16.2058 19.1351C16.3541 19.1836 16.5153 19.1742 16.657 19.1088C16.7395 19.0713 18.687 18.1538 19.1633 15.1613C19.1844 15.0307 19.1634 14.8967 19.1033 14.7788C19.0608 14.6963 18.042 12.7576 15.217 12.0726C15.1212 12.0481 15.0208 12.0472 14.9246 12.0701C14.8283 12.0929 14.7391 12.1388 14.6645 12.2038C13.7733 12.9651 12.542 13.7763 12.0108 13.8601C8.44952 12.1188 6.46077 8.77758 6.38577 8.14383C6.34202 7.78758 7.15827 6.53633 8.09702 5.51883C8.15602 5.45479 8.20096 5.37911 8.22895 5.29666C8.25694 5.2142 8.26735 5.1268 8.25952 5.04008Z" fill="black"/>
</g>
<defs>
<clipPath id="clip0_625_47">
<rect width="20" height="20" fill="white"/>
</clipPath>
</defs>
</svg>
