<svg width="20" height="20" viewBox="0 0 20 20" fill="none" xmlns="http://www.w3.org/2000/svg">
<path d="M18.3337 4.83351C17.7073 5.10525 17.0448 5.28489 16.367 5.36684C17.0821 4.93961 17.6181 4.26749 17.8753 3.47517C17.2033 3.87523 16.4676 4.15709 15.7003 4.30851C15.1874 3.75232 14.5045 3.38209 13.7585 3.25588C13.0125 3.12968 12.2458 3.25464 11.5785 3.61117C10.9112 3.96769 10.3811 4.53562 10.0714 5.22587C9.76162 5.91613 9.68974 6.68967 9.86699 7.42517C8.50818 7.35645 7.17903 7.00264 5.96587 6.38673C4.75272 5.77082 3.6827 4.90659 2.82533 3.85017C2.52461 4.37531 2.36659 4.97003 2.36699 5.57517C2.36593 6.13716 2.50384 6.69069 2.76845 7.18648C3.03307 7.68227 3.41617 8.10493 3.88366 8.41684C3.34031 8.40206 2.80856 8.25626 2.33366 7.99184V8.03351C2.33773 8.82092 2.61365 9.58275 3.11475 10.1901C3.61585 10.7975 4.31137 11.2132 5.08366 11.3668C4.78637 11.4573 4.47772 11.505 4.16699 11.5085C3.9519 11.506 3.73734 11.4865 3.52533 11.4502C3.74525 12.1275 4.17084 12.7195 4.74289 13.1436C5.31493 13.5678 6.00497 13.8031 6.71699 13.8168C5.51466 14.7629 4.03023 15.2792 2.50033 15.2835C2.22177 15.2844 1.94344 15.2677 1.66699 15.2335C3.22902 16.2421 5.04934 16.7774 6.90866 16.7752C8.19174 16.7885 9.46461 16.546 10.6529 16.0619C11.8412 15.5778 12.9212 14.8617 13.8297 13.9556C14.7381 13.0494 15.457 11.9713 15.9441 10.7843C16.4313 9.59719 16.677 8.32495 16.667 7.04184C16.667 6.90017 16.667 6.75017 16.667 6.60017C17.3209 6.11252 17.8849 5.5147 18.3337 4.83351Z" fill="black"/>
</svg>
