<svg width="10" height="12" viewBox="0 0 10 12" fill="none" xmlns="http://www.w3.org/2000/svg">
<path d="M9.71055 5.53618L5.84374 1.16495C5.71843 1.0526 5.55483 0.992536 5.38659 0.99712C5.21835 1.0017 5.05826 1.07058 4.93925 1.18959C4.82024 1.3086 4.75136 1.46869 4.74678 1.63693C4.7422 1.80517 4.80225 1.96877 4.91461 2.09408L8.37762 6.00924L4.91461 9.92441C4.80226 10.0497 4.7422 10.2133 4.74678 10.3816C4.75136 10.5498 4.82024 10.7099 4.93925 10.8289C5.05826 10.9479 5.21835 11.0168 5.38659 11.0214C5.55483 11.026 5.71843 10.9659 5.84374 10.8535L9.71055 6.48361C9.84123 6.35293 9.90265 6.18174 9.90135 6.01055C9.90265 5.83936 9.84123 5.66686 9.71055 5.53618ZM0.227122 10.8548C0.35046 10.9778 0.517522 11.0469 0.691689 11.0469C0.865857 11.0469 1.03292 10.9778 1.15626 10.8548L5.02438 6.48361C5.15506 6.35293 5.21778 6.18174 5.21517 6.01055C5.21648 5.83936 5.15506 5.66686 5.02438 5.53618L1.15756 1.16495C1.03225 1.0526 0.86865 0.992536 0.70041 0.99712C0.53217 1.0017 0.372082 1.07058 0.253074 1.18959C0.134066 1.3086 0.0651868 1.46869 0.0606027 1.63693C0.0560186 1.80517 0.116078 1.96877 0.228429 2.09408L3.69144 6.00924L0.22843 9.92441C0.104885 10.0476 0.0353426 10.2149 0.0350975 10.3894C0.0348525 10.5638 0.103924 10.7313 0.227122 10.8548Z" fill="#E5BA03"/>
</svg>
